<?xml version="1.0" encoding="UTF-8" standalone="no"?>
<svg
   xmlns:dc="http://purl.org/dc/elements/1.1/"
   xmlns:cc="http://creativecommons.org/ns#"
   xmlns:rdf="http://www.w3.org/1999/02/22-rdf-syntax-ns#"
   xmlns:svg="http://www.w3.org/2000/svg"
   xmlns="http://www.w3.org/2000/svg"
   viewBox="0 0 840 859"
   height="859"
   width="840"
   id="svg2"
   version="1.1">
  <metadata
     id="metadata8">
    <rdf:RDF>
      <cc:Work
         rdf:about="">
        <dc:format>image/svg+xml</dc:format>
        <dc:type
           rdf:resource="http://purl.org/dc/dcmitype/StillImage" />
        <dc:title></dc:title>
      </cc:Work>
    </rdf:RDF>
  </metadata>
  <defs
     id="defs6" />
  <path
     id="path825"
     d="M 390.85249,841.23117 C 285.51474,833.67609 193.17989,792.08278 120.31306,719.36351 53.266833,652.45307 12.262453,567.66084 0.62006262,471.85251 -2.2125174,448.54249 -2.4378974,402.9578 0.16766262,380.35251 6.1090326,328.80642 19.390073,283.23848 41.346233,239.06666 99.614983,121.84049 208.09651,39.352114 336.85249,14.366369 c 26.75516,-5.1919753 45.76441,-6.8712293 78,-6.8904293 32.56094,-0.01939 48.66954,1.326463 75.97444,6.3475503 65.6991,12.08138 128.0172,39.897197 179.6192,80.173364 12.8842,10.056396 13.8345,10.862416 28.8492,24.470846 57.3336,51.96376 102.0807,127.67914 121.0667,204.85377 8.9098,36.21689 11.8751,61.44521 11.8751,101.03104 0,21.06622 -0.4793,33.24047 -1.7519,44.5 -5.6763,50.22084 -19.3865,97.12667 -41.1505,140.78585 -63.8541,128.09324 -187.1301,214.18734 -328.9822,229.75623 -13.4479,1.47597 -58.08254,2.65547 -69.50004,1.83658 z M 206.30981,719.90613 c 41.17366,-10.98815 72.56063,-27.81076 94.57238,-50.68839 15.12255,-15.71743 22.62334,-29.03363 32.33536,-57.40523 7.1097,-20.76949 6.34118,-26.55239 -5.3257,-40.07431 -13.11112,-15.1958 -21.16877,-34.18089 -30.50968,-71.88569 -1.97572,-7.975 -4.06147,-15.68616 -4.63501,-17.13592 -1.40166,-3.543 -5.96503,-8.08634 -14.39467,-14.33147 -12.30178,-9.11383 -17.17729,-16.44922 -18.18342,-27.35768 -0.37331,-4.04733 -1.35352,-6.86812 -3.41771,-9.83522 -1.59186,-2.28815 -3.61861,-6.98758 -4.50389,-10.44318 -2.1869,-8.53629 -1.49516,-14.37576 4.6854,-39.55321 1.81801,-7.40594 1.99919,-11.45565 1.96855,-44 -0.0679,-72.06725 3.9352,-93.04148 22.43202,-117.53376 27.20416,-36.02197 62.78492,-58.93533 105.51905,-67.95235 15.4898,-3.26839 42.8944,-3.28997 58.91014,-0.0464 42.038,8.51375 78.7966,32.83318 104.6771,69.25425 9.7742,13.75501 15.727,28.97476 19.1397,48.93492 1.3096,7.65965 1.675,18.60489 1.8862,56.5 0.2592,46.50455 0.2901,47.13704 2.9302,60 3.0882,15.04612 4.1989,31.09667 2.5683,37.11282 -0.6132,2.26205 -2.1673,5.66371 -3.4536,7.55924 -1.4521,2.13984 -2.5616,5.60498 -2.9265,9.14015 -0.6753,6.54344 -4.3025,15.09568 -8.8231,20.80339 -1.7179,2.1691 -6.8751,6.87328 -11.4604,10.45373 -10.2376,7.99407 -13.1842,11.4057 -14.0008,16.21011 -4.5053,26.50814 -20.0765,66.18586 -32.3225,82.36238 -8.3659,11.05109 -8.6302,11.83239 -8.581,25.35818 0.036,9.86893 0.4501,13.15433 2.3325,18.5 6.3632,18.07021 19.1025,39.19623 32.1024,53.23629 28.1539,30.40663 70.8368,49.32459 121.0214,53.63914 5.775,0.4965 11.0209,0.61514 11.6576,0.26365 3.3977,-1.87565 25.9728,-23.17356 35.1263,-33.13906 46.1672,-50.26248 77.0094,-107.21816 92.7556,-171.28948 28.1712,-114.62868 2.35,-236.11002 -69.9465,-329.07798 -47.8059,-61.47498 -112.282,-106.662388 -186.4917,-130.700825 -39.4878,-12.791122 -75.0829,-18.285381 -118.60134,-18.30663 -33.92477,-0.01656 -57.83531,2.677181 -88.5,9.970352 C 223.5158,73.025149 136.12782,137.66272 81.927453,229.60971 c -43.35257,73.54447 -60.97297,162.58927 -49.02396,247.7428 13.14619,93.68514 59.27912,178.08534 131.182407,239.99823 l 10.7334,9.24209 10.22367,-1.86979 c 5.62302,-1.02838 15.19309,-3.19599 21.26684,-4.81691 z"
     style="fill:#b3b3b3" />
</svg>
